<svg id="Layer_1" data-name="Layer 1" xmlns="http://www.w3.org/2000/svg" viewBox="0 0 512 512"><defs><style>.cls-1{fill:#707070;}</style></defs><title>man-1-handdrawn</title><path class="cls-1" d="M456.88,451.72l-2.07-13.88c-.58-4.65-2.16-9.1-3.2-13.66a167.84,167.84,0,0,0-23.72-50.56c-3.43-4.36-6.25-9.07-10-13.12l1.66,1.69a167.9,167.9,0,0,0-87.76-54.38,79,79,0,0,0-.39-9.85c-.33-2.61-.65-6.67-.93-11.37,0-.48-.05-1.3-.07-2.23a150.43,150.43,0,0,0,17-11.87,137.16,137.16,0,0,0,25.7-29A128.87,128.87,0,0,0,392,195.79c.35,1.06-.63,6.35-.1,5.54.21-.42,1.1-2.31,1.85-7.21.41-2.44,1-5.6,1.56-9.67.22-4,.64-9.27.75-15,.33,1.55.49,3,.67,4.52.31-16.29.42-31.89.36-42.92a120.35,120.35,0,0,0-9.39-46.45c-3-7.14-4.75-9.19-7-13.52l.47,1.39A135.88,135.88,0,0,0,368.75,53a82.63,82.63,0,0,0-6.92-8.39c-2.27-2.47-4.15-4.87-6-6.51A127.36,127.36,0,0,0,319.93,12.7,130.36,130.36,0,0,0,273,.39c-4.85-.2-11.79-.68-17.76-.13a136.18,136.18,0,0,0-39.85,8.15l-.95.32c-.24.08-.47.2-.7.28-1.25.48-2.53.86-3.76,1.38-.48.2-.93.46-1.4.67-22.64,9.28-43.32,26.35-57.64,46.83a132.16,132.16,0,0,0-10.92,19l-.9,2.27L143,71.51c.81-1.47,1.71-2.88,2.62-4.28a129.92,129.92,0,0,0-14.44,36.3c-.08.28-.13.56-.21.84a34.82,34.82,0,0,0-1.52,6.1c-.72,4.7-2,9.55-2.06,14.64l-.46,8.52c-.12,4.33,0,9.18-.06,13.79,0,9.31,0,18.72.06,28.1l0,7v2.62a6.61,6.61,0,0,0,.71-.44l.17-.12c0,.36,0,.72.06,1.07l.88,6.1.91,6.09c.38,2,1,4,1.43,6a91.2,91.2,0,0,0,3.45,11.78,131.38,131.38,0,0,0,24.48,42.75l6.49,7.18c3.49,3.76,6.75,6.51,9.42,9s5.39,4.1,7.69,5.81c4.55,3.5,9,5.51,14.5,8.9a38.18,38.18,0,0,0,7.91,3.21c1.08.31-2.52-1.65-.63-.93.59.29,1.35.62,2.22,1,0,0,0,.1,0,.14-30.52,4.22-61.15,16.84-85.42,36.44a174.75,174.75,0,0,0-22.48,21.42l-2.19,2.68c10.72-12.28,23.37-22.64,36.75-31.72a188,188,0,0,1,43.85-20.32,41.45,41.45,0,0,1,5.65-1.81,43.13,43.13,0,0,0-5.53,2.14A194,194,0,0,1,206.69,295c0,2.91-.1,5.33-.24,7.07-.21,2.75-.29,5.89-.32,9.78l-.32,0L205.69,298c0,4.81-.06,9.38-.09,13.92l-5.18.8-.56.14c-.05-2-.11-3.62-.19-4.33-.2-1.94-.49-.19-.81,0l-.12-3.49c0,3.11,0,5.71,0,8.08-2.07.51-4.14,1.07-6.19,1.58l-7.69,2-7,2.6c-15,5.33-25,11.54-31.1,15-3.47,1.73-6.81,4.34-10.71,7.17-1.91,1.46-4.07,2.85-6.12,4.65l-6.46,5.87c-4.85,4-8.76,9-13.12,13.57l-.14-.06a156.15,156.15,0,0,1,43.51-36.32c-5.24,3.27-10.66,6-15.26,9.77l-7.09,5.29c-2.32,1.8-4.37,3.89-6.57,5.82C103.37,369,88,394.39,79.32,421c-1.32,5.39-3.1,11.1-4.24,16.59l-2.51,14.84c-.66,8.29-1.17,12.2-1.11,5.56-.19-10,2.18-24.34,5.43-37.23.38-1.67,2.75-7.65,4.17-11.64l-.25,1.62c.81-2.2,1.44-4.34,2.31-6.34l2.76-5.9a99.84,99.84,0,0,1,6.56-12.69,75.52,75.52,0,0,0-5.68,10.09l-2.27,4.56c-.46.38-1.11,1.29-1.08.82.2-1.31-3.56,4.33,5.38-13.93,2.11-3.56,4.71-8.26,7.2-12.12,2.68-3.73,4.9-6.84,5.45-7.74a50.45,50.45,0,0,1,3.4-4.85l7.54-8.37a185.28,185.28,0,0,1,19-17.42c3.3-2.72,0-.64-.53-.61l6.13-4.73c-6,4.54-11.22,8.05-15.22,12-4.15,3.79-8,7-11.17,10.8L109,356.61c-5.61,5.64-9.86,11.85-14.34,17.65-2.1,3-3.87,6.16-5.8,9.21a73,73,0,0,0-5.26,9.43l-4.75,9.89c-1.39,3.43-2.58,7-3.91,10.6l-2,5.49-1.47,5.82c-.89,4-2.24,7.94-2.85,12.25a50.24,50.24,0,0,1,1.23-6.67,82.32,82.32,0,0,0-2.25,11.37l-1.51,9.66c-.41,2.66-.72,3.58-1.17,8-.09,1.17-.31,4.17-.55,7.39a31.19,31.19,0,0,0,.81,9.4,34.65,34.65,0,0,0,14.23,20.49,34.17,34.17,0,0,0,11.41,5,50.08,50.08,0,0,0,11.79.94l43.8.15,21.48,0,101.24-.49,123.29-.87c14.84-.16,36.16-.22,32.25-.85-1-.21-.32-.15,3.38-.41a31.8,31.8,0,0,0,27.29-20,32.44,32.44,0,0,0,2.17-14.25ZM385,114.74a66.36,66.36,0,0,1,1,12c0,1.67.18,6,.28,9.32,0,4.86.06,10.82.1,17l-.77.24c-.64.21-1.22.35-1.84.55,0-1.8,0-3.58,0-5.35.4-.17.75-.3,1.17-.5,0-2.36,0-5.29.07-8.86s-.12-7.12-.3-10.5c0-.81-.15-1.61-.19-2.42a11.76,11.76,0,0,0,.13-2.09c0-3.72-.63-7.76-1-12s-1.62-8.59-2.42-13C383.58,107.21,384.66,111.25,385,114.74Zm-7.75,33.92a108.61,108.61,0,0,1-16.66,3.93,118.93,118.93,0,0,1-26.21.94c-28.55-2.21-56-11.7-82-23.47a1.4,1.4,0,0,1-.35-.28l4,1.75a286.45,286.45,0,0,0,50.75,17.27c17.38,3.94,35.42,5.93,53,3.42a76,76,0,0,0,8.42-1.43,71.43,71.43,0,0,0,11.65-3.71l1.38-.55.47-.2v1.36c-.5.19-1,.37-1.48.6C381,147.58,380.13,147.67,377.28,148.66Zm-168.44-35.9-14.4,9.65,9.6-6.66c3.15-2.11,6.67-4.67,9.74-6.5,7.63,4.71,13.33,7.86,16.9,10l-8.19-4.29c-2.78-1.51-5.74-3.18-8.7-5-.37,0-.81.49-1.26.74l-14.06,9.2,10.73-7.34Zm19.31-9.56c-4.84-2.79-9.79-5.94-14.65-9L178,117.86,155.53,133l-.33.28c.09-3,.2-5.95.4-8.67,1.23-10.06,3.24-20.31,7.13-29.59,2.12-4.79,3.64-8,4.62-10.12,1.22-2.25,2.51-4.45,3.9-6.6A108.87,108.87,0,0,1,192,53.75,36.8,36.8,0,0,1,197,49.81c11-7.62,14.47-9.62,22.07-13.48a30.74,30.74,0,0,0,5-2.63c.07,0,.08-.07.08-.09,1.33-.52,2.51-1,3.06-1.24,3.06-1.39,2.47-1.44-.55-.59,1.19-.55,2.45-1.11,3.6-1.58,2.5-.85,4.33-1.53,3.1-1.4-3.13.42,2.94-1.62,8.21-2.91a74,74,0,0,0-7.63,1.63,55.75,55.75,0,0,0-8.38,2.37c3.93-1.68,6.45-2.19,8.1-2.81s2.57-1,3.58-1.36c2-.9,4.58-1.64,15-3.06-3.46.13-7.19.87-7,.78A59,59,0,0,1,253,21.52c.48,0,1.07,0,1.84,0a89.79,89.79,0,0,1,12.63.37c1.37.1,2.6.21,3.76.33l-.15,0c-.5.15,2.07.5-.23.52-10,.2-4.42.41,6,1.93a60.47,60.47,0,0,0-8.89-.34c5,.16,9.51,1.19,15,2.07,5.35,1.14,13.76,3.23,16.85,4.74,14.18,5.59,30.57,15.25,42.34,28.34A106.82,106.82,0,0,1,362,88.45c-.62-.46-2.54-3.55-2.56-2.85-.25.78,2.65,4.85,7.2,20.33l-1.53-2.79a112.42,112.42,0,0,1,4.29,30.34,8.11,8.11,0,0,1,0,2l-.08.82-.06.79s0,0,0,0l-1.51.48c-2.34.62-4.71,1.17-7.06,1.66-4.79.85-6.42,1.34-9.58,1.8l1,.11a119.76,119.76,0,0,1-28.59-1.68c-16-2.66-42-10.89-61.6-19.34-3.17-1.32-7.66-3.38-11.47-5.23q-7.53-3.65-14.89-7.65Zm-84.36,58.85,1.85-1.2,7.61-5.07c.34,2.81.67,5.41,1,7.8l-10.46,6.92Q143.75,166.31,143.79,162.05ZM208.29,25.42l-4.47,2.18-4.34,2.65a78.26,78.26,0,0,0-9.11,6.05c16.21-13,36.79-19.32,46.2-20.87-4,1.15-7.9,2.07-11.77,3.38C221,20.36,217,21.6,213,23.53a146.94,146.94,0,0,0-17.79,9.52l8.59-5.33,5-2.48Zm-15,22.82a76.05,76.05,0,0,0-6.7,5.71c-3.8,3.13-6.68,7.11-10.07,10.66A122.32,122.32,0,0,0,163.27,85.3c-1.21,2.51-2.32,4.26-3.49,6.37l1-2.49c7.64-16.25,18.86-31,33.3-41.78Zm-43.22,52.39c-2.52,9.33-4.64,18.82-4.87,28.4l-.32,5.17c0,1.49-.07,3-.1,4.44l-.31,8.15c-.21,4-.47,6.72-.72,5.31-.07-9.43-.27-19.27.56-30-.16,2.69-.06,3.95-.1,5.46l.28-4.84.71-4.41c.47-2.81.81-5.4,1.28-7.73.81-2,1.25-2.7,2.34-6,.34-.86.83-3.2,1.74-5.6L153,92.52c.21-.53.46-1,.67-1.55C152.42,94.16,151.22,97.38,150.12,100.63Zm13.48-28.87-1.52,2.47c-.86,1.34-1.62,2.75-2.4,4.14C160.91,76.1,162.22,73.91,163.59,71.75Zm-6.44,11.42c-.29.59-.57,1.18-.85,1.77C156.58,84.34,156.87,83.76,157.16,83.17ZM171,61.4c.37-.44.77-.85,1.15-1.28a51.67,51.67,0,0,0-3.32,4.21l-3.37,4.48C167.2,66.25,169,63.78,171,61.4Zm198.19,75.7s0,0,0,0h0ZM271.15,13a54.21,54.21,0,0,1,8.24.88c1.35.22,2.7.41,4.05.6l-.7-.06c-2.22-.12-5.53-.81-9.54-1.07-2.3-.21-4.6-.36-6.9-.43a2.05,2.05,0,0,1-.53-.13Zm21,8.31A118.49,118.49,0,0,1,337.31,44,121.35,121.35,0,0,1,368.12,82.2c3,5.32,5.43,12.3,7.41,17.42,1.47,5.28,2.53,8.71,2.43,7.08s1.68,2.47,3.25,18.18c.12,3.86.51,8,.51,12.13v.5a8.52,8.52,0,0,0-.17,1.22l-.33,4-.16,2.07,0,.52c-.08.12-.33.13-.48.2l-1.06.33-4.21,1.29-4.45,1a57.28,57.28,0,0,0,6-2.21c1.27-.7,2.72-.85,3.16-1.65,0-2.24.13-4,.36-7.71.13-.91,0-4.35-.14-7a71.3,71.3,0,0,0-1.09-11.57l-1-6.37c-.45-2.12-1.11-4.19-1.64-6.23l-1.66-5.87-2-5a52,52,0,0,0-3-6.89c-.85-1.5-2.25-4-3.41-6.39a125.15,125.15,0,0,0-21.9-29.79c-4.14-3.73-7.9-7.38-11.78-9.92l-5.24-3.73-4.63-2.61c-5.41-3.14-8.11-3.82-5.68-2.27,1.2.86.3.65-1.85-.11a134.36,134.36,0,0,0-20.14-8.08,120.63,120.63,0,0,0-34.55-4.51l-.7.09c.78-.13,1.54-.26,2.35-.41-15.17.18-25.41,2.7-35.55,5.67-.09-.26,2.54-1.59-.79-.6-9.12,2-25.32,10.34-35.31,18.72C186.22,47,183,50.39,180,52.92q-4,4.32-6.57,6.87a89.92,89.92,0,0,0-11.72,16c-2.38,3.55-4,7.53-6,11.34l-.14,0A112.18,112.18,0,0,1,176.82,55c-.71.75-1.38,1.5-2.08,2.25a130.49,130.49,0,0,1,22.35-19.56,136.74,136.74,0,0,1,15.12-8.49,116.25,116.25,0,0,1,38.77-11A119.22,119.22,0,0,1,292.11,21.35ZM137.06,136.92c.06-4.79.49-10.15.84-15.06.86-4.89,1.54-9.49,2.41-13,1.81-6.2,2.91-9.4,2.35-6.23q-.94,3.35-1.77,6.73c-.79,4.93-1.77,9.93-2.1,15.21l-.36,8.28c-.18,3.18,0,6.57-.05,10l-.24-5.35c0,6.84-.09,12.6-.12,17.46-.28,2.56-.53,3.7-.76,7.8l-.09,2.64c0,.29,0,.6,0,.91.16,0,.48-.27.72-.4l1.59-1c0,1.32,0,2.59.06,4l.07-4.11,2.17-1.41c0,.88.05,1.83.08,2.87,0,1.65.07,3.53.16,5.45l-4.79,3.16c0-.48-.07-1-.07-1.44C136.9,161.07,137.06,149,137.06,136.92Zm29.13,124.17a106.34,106.34,0,0,1-8.17-9.77,145.22,145.22,0,0,1-11.69-17.69c-5.45-10.57-10-21.92-12.45-33.37-1.08-3.9-1-7-1.47-10.38l.74,3.8a130.73,130.73,0,0,0,34.28,68.46Zm38,22.26c-3.82-1.84-7.63-4.56-11.8-7-3.92-2.79-8-5.69-11.71-8.78-3.52-3.33-7.33-6.19-10.1-9.52A109.55,109.55,0,0,1,152.34,233a178.2,178.2,0,0,1-10.15-24.13l-2.1-8.16-1-4.09-.62-4.17.14-.06a124.74,124.74,0,0,0,13.77,38.82c-1.11-2-2.18-4-3.09-6.13-2.47-4.66-4.07-9.6-5.86-14.46a132.28,132.28,0,0,1-6-32.31l4.82-3.19h0c.07,1,.14,1.91.21,2.81a42.17,42.17,0,0,0,.88,7.73c.32,1.15.6,2.59,1,4.76a66.13,66.13,0,0,0,1.85,9,104.08,104.08,0,0,0,7,19.84c1.69,3.05.59.1.72-.36l2.81,5.55c-1.29-2.73-2.54-5.2-3.57-7.56l-2.46-6.78c-1.73-4.18-2.38-8.16-3.45-12l-.9-2A137.11,137.11,0,0,1,143.91,174c22-14.6,24.47-16.55,13.56-9.71-3.32,2.07-.61,0-.66-.11l18.47-12.28,12-7.27L204.13,133l8.42-5.8.95-.65.08-.07.16-.16a4.66,4.66,0,0,1,.36-.32l.13,0a1.36,1.36,0,0,0,.51.11c.06,0,.18,0,.16-.07a2.84,2.84,0,0,0,.65.2c.28,0-.12-.29-.42-.57a3.48,3.48,0,0,0-1-1.26,5.16,5.16,0,0,0-1,.4l-.3.15a3.87,3.87,0,0,0-.66.39l-3.12,2-13.6,8.9L158.1,161l-3.54,2.34c.09-1.6.19-4.39.25-7,0-.55,0-1.15,0-1.71L175.44,141l25.09-16.55,11-7.39a21.53,21.53,0,0,1,2.36-1.54l4.89,2.83,7,3.84c4.83,2.6,9.78,5.13,14.8,7.56,10,4.9,20.4,9.35,30.66,13.17,27.19,10,56.56,17,84.12,14a101.6,101.6,0,0,0,16-3c2.14-.71,4.28-1.43,5.54-1.94s1.59-.75.79-.65-.26-.11,2.17-1.15c.51-.23,1.17-.48,1.88-.76v5.1a69.45,69.45,0,0,1-7.62,1.83c-10.1,3.13-23.36,4.51-34.27,4a199.94,199.94,0,0,1-38.56-5.43,305.51,305.51,0,0,1-56.37-20.12l-6.78-2.58c-.88-.3,0,.32,1.76,1.3,5.37,3.05,15.71,8,16.91,8.8,2.42,1.84,18.08,8,29.12,11.47a117,117,0,0,0,18.74,4.75c4,.59,10.3,1.59,17.62,2.35,3,.35,13.79,1.41,16.71,1.38a106.88,106.88,0,0,0,28.74-2c2.31-.55,4.61-.95,6.81-1.71l4.29-1.34c1-.36,1.93-.74,2.89-1.12v4.23l0,11.62-.58,11.46A119.35,119.35,0,0,1,367.89,227c-2.14,4-4.66,7.68-7.07,11.45a16.12,16.12,0,0,0,1-1.66,119.5,119.5,0,0,1-72.35,50.72c1.6-.15.44.35-2.68,1.3a130,130,0,0,1-14.61,2.27c-3.06.74-5,1.36-8.72,2.05-2.54.47-1.23.65,4.08.52,2.64-.17,6.34.06,10.94-.81l7.67-1.17c2.78-.55,5.76-1.45,9-2.27a123.77,123.77,0,0,0,45-23.57c8.29-7.16,16.86-16.24,21.93-23.94,15.42-22.46,23.52-50.37,21.77-81.17,0-1.83,0-3.65,0-5.47l2.6-1.05c0,4.21,0,8.49.07,12.62a170.46,170.46,0,0,1-1.16,24.38,49.18,49.18,0,0,1-1.53,9.27,123.26,123.26,0,0,1-20,43.71A155.89,155.89,0,0,1,351,259.59c-4.43,4.06-8,7.93-11.31,10.36-6.36,5.15-9.16,7.51-5.83,5.58,4.67-2.69-9.11,8.76-23.39,14.44l-9.29,3.46c-2.82.94-5.41,1.51-7.68,2.17a82.4,82.4,0,0,1-10.74,2.47c-5.36,1-7.33,1.63-8.21,1.85-.67.24,3,.2-.21.54-7,.64-8.57,1-6.48,1.07a76.67,76.67,0,0,0,15.37-1,87.51,87.51,0,0,1-12.67,1.87l5.35-.21,5.27-.69c3.53-.54,7.23-.79,11.09-1.91A125.58,125.58,0,0,0,309,294.54c-.12,3.91-.21,8.09-.26,12.6,0,3.59,0,7.27,0,10.93l0,2.69,0,0,.08.1,0,.12,0,.06,0,0-.75.46-3.92,2.36-39.25,23.52-2.45,1.48-.08.07-.14.12L262,349l-4.74-2.78-12-7.13c-9.56-5.7-19.77-11.82-28.6-17.31l-1-.62c-.11-.08,0,0-.08-.07l0-.06-.06-.11.05-.14c0-.11,0,.49,0-1.82l0-9.77c0-4.52-.07-9.11-.1-13.7,3.63,1.12,6.26,1.79,4.64,1.07-2.08-1-.9-.74,1.72.05s6.85,1.58,10.66,2.46c-3.77-1.09-7.27-1.82-10.82-3.11-2-.77-4-1.54-6.22-2.37,0-.07,0-.14,0-.21,6.85,2.44,9,2.81,11.48,3.16,3.08.36,6.64,1.68,21.34,3.52l-9.8-1.63c4.06.22,7.89.63,11.77.64l12-.45c-20.41-.36-34.38-4-47.64-9.3.11-.25,3.88.77-.39-1C211.33,287.08,208,285.19,204.21,283.35Zm113.32,47.27,4.08-2.47-.13-39,.44-.2q0,19.67-.1,39.33L315.54,332c-.1.06-.17,0-.29.05Zm-29.89,18.14-9.76,5.9c9.37-6.08,19.08-11.95,23.72-14.37l-11.43,7.34-9.5,5.53,7.22-4.51ZM212,303.27c0,5.87,0,11.86,0,17.62a8,8,0,0,1-.37,1.56l-.16-.53.23-27.6.19.07C211.94,297.35,212,300.29,212,303.27Zm-.24-11.14v-.06l.17.06v.07Zm-5.66,28.64,0,2.74-.14.05,0-2.75Zm-.5.09v5.67l20.33,12.26c8.91,5.42,20.1,12.93,14.52,10.22-4.18-2-10.12-5.18-15.58-8L220,338l.8.1-11.11-6.27,6.49,4.16c.08.34.42.76.15.81-.76.13,1.57,2.18-6.59-2.24-2.86-1.54-7.7-4.3-9.36-5.1a5.52,5.52,0,0,0-.07-.81,41.44,41.44,0,0,1-.28-6.6C202,321.63,203.82,321.21,205.58,320.86Zm-90.91,48c4.56-4.94,8.93-10.06,14.12-14.35,4.8-4.72,10.37-8.51,15.73-12.54,11.21-7.31,23-14,35.77-18.11l-1.51.77-6.21,2.19c-2,.87-4,1.86-5.94,2.8-3.25,1.68-6.68,3-9.74,5l-9.34,5.72c-2.62,1.59-5,3.64-7.46,5.43s-5.08,3.53-7.27,5.72c-4.48,4.23-9.3,8.07-13.16,12.71-2.74,3.13-5.21,5.07-7.42,7.89A24.43,24.43,0,0,1,114.68,368.87Zm57,129-24-.14,18.58-.15-.58,0-24.91,0c24.38-.39,49.16-.43,60.56-.11Zm-47.19-13.21-21.53,0h-2.68c-.89,0-1.91,0-2.23,0a18.73,18.73,0,0,1-2.92-.31,16,16,0,0,1-5.38-2.18A16.92,16.92,0,0,1,82.65,473a20.06,20.06,0,0,1-.61-2.88,18.31,18.31,0,0,1-.07-3.61l.49-9.88a49.32,49.32,0,0,1,.87-8.37l1.27-8.42c1-5.59,2.73-11.07,4.08-16.58,2.08-5.27,3.69-10.69,6-15.67l3.58-7.33,1.75-3.6,2.08-3.34a145.14,145.14,0,0,1,30.75-37.2,160.37,160.37,0,0,1,40.79-26.07l8.94-3.23c6.87-2,12-3.47,16.45-4.55,0,2.78-.07,5.46-.1,8L211.52,338l18.11,10.68-2.74-1.37,8.19,5a21.19,21.19,0,0,0,2.7,2.51c.83.63,4.49,3,6.06,3.93l8.28,4.89,10.07,6.1,20.56-12.15,8.41-5.1,16.51-10.21,18.8-11.46c0-3-.05-5.95-.07-8.85l-.54-35.1c.86-.47,1.72-1,2.59-1.47.05,5.26.18,9.93.27,15.14.12,10,.23,20.34.37,31.75L316.63,340c-.86.68-2.75,2.09-3.74,3-.46.41.23.19,1.41-.39l3.14-1.6,4-2.1c3.41-1.86,6.39-3.47,7.18-3.74a24.16,24.16,0,0,0,2.91-1.4c.17-2.88.22-8.09.24-13.15l5.56,1.43c4.63,1.55,8.83,3.19,11.22,4.08,21.35,8.29,44.54,24.92,61.41,45a157.68,157.68,0,0,1,26,45.48c-.69-.83-2.91-5.79-2.89-4.81,0,.49.57,2.46,2.17,7.15l1.41,4,1.33,5.34c.87,4,2.53,8.76,3.16,14.81l-1.48-4.48,1.85,12.74c.49,4.24.44,8.48.69,12.5q.07,1.51.14,3l.06,1.41-.07.87a12.89,12.89,0,0,1-.55,3.23,16.35,16.35,0,0,1-2.41,5,17,17,0,0,1-11.55,6.75c-.56.11-1.14,0-1.71.11s-2,0-3,0h-6.36l-12.52.08c-8.28.08-11.07.45-16.33.68l1.56.19-46.26-.35c-25.68-.55-67.39-.71-99.66-.29l-19.1.07ZM455,474.68a30,30,0,0,1-24.72,23.42c1.55-.73.53-.44-3.95-.4l-25.51-.14-38.59.07-125.46-.14a2.83,2.83,0,0,1-.63-.11l6.38-.06,157.2-.24,12.62.15c6.23-.16,12.82.43,18.72-.5a28.87,28.87,0,0,0,15.76-8.57,15.56,15.56,0,0,0-2.92,2,29.25,29.25,0,0,1-12,5.16,31.22,31.22,0,0,1-7,.37l-7.78-.34c4.82-.13,8.75-.1,11.19-.36a30.43,30.43,0,0,0,6.22-1.41,29.25,29.25,0,0,0,10.72-6.33,27,27,0,0,0,5.59-8,29.33,29.33,0,0,0,2.08-15.74c-.33-6.21-.56-12.74-1.84-18.82l-1.47-8.83-2.12-7.68c-1.29-4.7-2.32-8.46-3.35-10.52-1-2.33-2.58-6.19-3.93-9.88a164,164,0,0,0-29-45.94C405.9,355.47,400,350.54,394.93,346c-5.34-4.19-10.19-7.55-14-10.15-8-4.55-11.6-6.32-8.15-3.8,2.35,1.77-.7.22-6.22-2.53-5.74-2.34-13.77-6.27-21.64-8.72-5-1.77-9.33-3-13.2-4,0-2,0-3.92,0-5.72a160.67,160.67,0,0,1,53.65,24.2c5.13,3.86,10.79,7.75,15.5,12.4,2.41,2.25,4.92,4.31,7.06,6.52l5.91,6.4c21.61,23.56,36.54,54.36,40.83,90.79l.66,11.82A38.19,38.19,0,0,1,455,474.68ZM54.64,473.34a43,43,0,0,1-.25-6.89l.53-11.21c.11-1.87.15-3.75.32-5.62L56,444l1.69-11.11c3.31-14.53,7.64-28.62,13.94-40.62,2.42-4.85,5.35-10.36,5-9.31-1.23,3-2.37,6.44-3.74,10a95.75,95.75,0,0,0-3.85,11.56c-.49,1.77-1.49,4.77-3.08,9.29s-2.9,10.85-5.08,18.92l-2.33,14.8c-.8,4.94-.7,10-1.08,15l-.19,3.76-.09,1.9.1,2.4a40.76,40.76,0,0,0,11.27,26,40.9,40.9,0,0,0,16,10.45,42.11,42.11,0,0,0,9.41,2.19c1.56.14,3.3.21,4.72.25h31.84c34.18,0,66.93.91,53.54,1.62l-8.07.17-62,.65-9-.3-5.28-.16-1.53,0-2.13-.13a32.58,32.58,0,0,1-4.51-.56A43.56,43.56,0,0,1,66,496.5c-.08.14-2.57-2.37.21.92,4.8,5.37,7.22,6.7,4.71,5.08a43.05,43.05,0,0,1-6.33-6.07,44,44,0,0,1-8.45-15.78A44.85,44.85,0,0,1,54.64,473.34Zm195.06,33.53c-2-.34-18.35-.63-27.17-1-2.85-.11-4.41-.27-3.08-.39l10.35-.63,85.63-.51c18.06-.13,32.82-.4,55.06-.26l47.95,0,6,.55a37,37,0,0,0,7.2,0,36.54,36.54,0,0,0,16.13-5.5,38,38,0,0,1-20,7c-2,.13-3.36.09-4.91.11l-4.6,0-9.42,0c-12.73,0-26.07,0-39.38-.24-4-.08-19.1,0-23.3.11-10.27.27-19.14.59-24.84.93-5.45.32-13.35.47-27.18.37C277.78,507.35,253.89,507.57,249.69,506.87ZM239.34,367.74c-10.66-6.38-22.17-12.93-31.71-19.21-1.91-1.26-4.08-2.78-3.63-2.65,2.71.78,6,1.89,9.43,3.15,1.5.54,4.85,2.46,11,6.2l37.77,22.87,17.93-10.74c13.42-8.06,26.74-15,21.85-11.22-.48.37-1.85,1.26-3.08,2l-25.52,16.07-11.18,6.2-4.39-2.83L245,369.9c-.07.14-1.13-.28,0,.53C248.7,373.12,247.53,372.65,239.34,367.74Zm-87-136.55c1.46,2.66,3,5.29,4.63,8C155.3,236.58,153.83,233.88,152.35,231.2Zm63.58,39.28a105.37,105.37,0,0,1-30.27-21.19l3.39,2.47L185.9,249a116.14,116.14,0,0,1-19.32-27.46,107.59,107.59,0,0,1-9.83-31.77l.52,2.29c.74,3.45,1.75,6.86,2.58,10.29,1.09,3.36,2.41,6.63,3.53,9.9,9.88,24.38,30.18,44.9,53,55.94l3.83,2,3.64,1.44,6.16,2.52c3.7,1.12,6.29,2,7.57,2.51,2.58,1-.15.93-9.59-1.52C225.09,274.06,219.5,272.5,215.93,270.48Z"/></svg>